<svg width="448" height="264" viewBox="0 0 448 264" fill="none" xmlns="http://www.w3.org/2000/svg">
<path d="M80.588 124.912V122.032L91.628 107.6H96.076L85.196 122.032L83.116 121.392H100.876V124.912H80.588ZM92.876 130V124.912L93.004 121.392V116.88H96.908V130H92.876ZM102.339 130V127.216L111.235 118.768C111.981 118.064 112.536 117.445 112.899 116.912C113.261 116.379 113.496 115.888 113.603 115.44C113.731 114.971 113.795 114.533 113.795 114.128C113.795 113.104 113.443 112.315 112.739 111.76C112.035 111.184 111 110.896 109.635 110.896C108.547 110.896 107.555 111.088 106.659 111.472C105.784 111.856 105.027 112.443 104.387 113.232L101.475 110.992C102.349 109.819 103.523 108.912 104.995 108.272C106.488 107.611 108.152 107.28 109.987 107.28C111.608 107.28 113.016 107.547 114.211 108.08C115.427 108.592 116.355 109.328 116.995 110.288C117.656 111.248 117.987 112.389 117.987 113.712C117.987 114.437 117.891 115.163 117.699 115.888C117.507 116.592 117.144 117.339 116.611 118.128C116.077 118.917 115.299 119.803 114.275 120.784L106.627 128.048L105.763 126.48H118.851V130H102.339Z" fill="#141414"/>
<g clip-path="url(#clip0_8807_20259)">
<path d="M0 180C0 166.745 10.7452 156 24 156H176C189.255 156 200 166.745 200 180V264H0V180Z" fill="white"/>
<rect x="-40" y="167.154" width="269.028" height="39.0132" transform="rotate(-16 -40 167.154)" fill="#D3DBF5"/>
<rect x="-34.7969" y="241.561" width="269.028" height="39.0132" transform="rotate(-16 -34.7969 241.561)" fill="#D3DBF5"/>
<rect x="-29.5942" y="315.967" width="269.028" height="39.0132" transform="rotate(-16 -29.5942 315.967)" fill="#D3DBF5"/>
</g>
<path d="M322.72 38.56C320.773 38.56 318.827 38.32 316.88 37.84C314.96 37.36 313.28 36.68 311.84 35.8L314.72 29.84C315.84 30.5867 317.08 31.16 318.44 31.56C319.827 31.96 321.173 32.16 322.48 32.16C323.84 32.16 324.92 31.9067 325.72 31.4C326.52 30.8933 326.92 30.1733 326.92 29.24C326.92 28.4133 326.587 27.76 325.92 27.28C325.253 26.7733 324.16 26.52 322.64 26.52H319.32V21.52L326.84 13.4L327.6 16.12H313.28V10H333.52V14.96L326 23.08L322.12 20.88H324.28C327.773 20.88 330.413 21.6667 332.2 23.24C334.013 24.7867 334.92 26.7867 334.92 29.24C334.92 30.84 334.48 32.3467 333.6 33.76C332.747 35.1733 331.427 36.3333 329.64 37.24C327.853 38.12 325.547 38.56 322.72 38.56ZM337.106 38V33.04L347.586 23.24C348.333 22.5467 348.88 21.9333 349.226 21.4C349.6 20.8667 349.84 20.3867 349.946 19.96C350.08 19.5067 350.146 19.0933 350.146 18.72C350.146 17.8133 349.84 17.1067 349.226 16.6C348.64 16.0933 347.746 15.84 346.546 15.84C345.533 15.84 344.586 16.0667 343.706 16.52C342.826 16.9733 342.106 17.6533 341.546 18.56L335.666 15.28C336.706 13.52 338.213 12.1067 340.186 11.04C342.16 9.97333 344.52 9.44 347.266 9.44C349.426 9.44 351.32 9.78667 352.946 10.48C354.573 11.1733 355.84 12.16 356.746 13.44C357.68 14.72 358.146 16.2267 358.146 17.96C358.146 18.8667 358.026 19.7733 357.786 20.68C357.546 21.56 357.08 22.5067 356.386 23.52C355.72 24.5067 354.72 25.6133 353.386 26.84L345.066 34.52L343.746 31.72H358.906V38H337.106ZM361.052 38V33.04L371.532 23.24C372.278 22.5467 372.825 21.9333 373.172 21.4C373.545 20.8667 373.785 20.3867 373.892 19.96C374.025 19.5067 374.092 19.0933 374.092 18.72C374.092 17.8133 373.785 17.1067 373.172 16.6C372.585 16.0933 371.692 15.84 370.492 15.84C369.478 15.84 368.532 16.0667 367.652 16.52C366.772 16.9733 366.052 17.6533 365.492 18.56L359.612 15.28C360.652 13.52 362.158 12.1067 364.132 11.04C366.105 9.97333 368.465 9.44 371.212 9.44C373.372 9.44 375.265 9.78667 376.892 10.48C378.518 11.1733 379.785 12.16 380.692 13.44C381.625 14.72 382.092 16.2267 382.092 17.96C382.092 18.8667 381.972 19.7733 381.732 20.68C381.492 21.56 381.025 22.5067 380.332 23.52C379.665 24.5067 378.665 25.6133 377.332 26.84L369.012 34.52L367.692 31.72H382.852V38H361.052Z" fill="#141414"/>
<path d="M248 88C248 74.7452 258.745 64 272 64H424C437.255 64 448 74.7452 448 88V264H248V88Z" fill="#407BFF"/>
<defs>
<clipPath id="clip0_8807_20259">
<path d="M0 180C0 166.745 10.7452 156 24 156H176C189.255 156 200 166.745 200 180V264H0V180Z" fill="white"/>
</clipPath>
</defs>
</svg>
