<svg width="142" height="40" viewBox="0 0 142 40" fill="none" xmlns="http://www.w3.org/2000/svg">
<path d="M142 0V40H68.6958V0H142ZM75.6753 6.09473V33.7383H81.3862V21.1826H90.4028V15.5205H81.3862V11.79H96.0806V6.09473H75.6753ZM99.0864 6.09473V33.7383H104.796V6.09473H99.0864ZM107.535 6.09473V33.7383H113.246V14.7871L129.476 33.7383H135.154V6.09473H129.476V25.0127L113.246 6.09473H107.535Z" fill="white"/>
<path d="M30.4237 14.9542C28.6537 14.9876 27.1842 15.4538 26.0488 16.3531C24.9133 17.2523 24.3122 18.3847 24.2454 19.7169V30.2082H18.5347V9.75858H24.2454V11.3239C24.7797 10.5912 25.5478 10.0916 26.5163 9.72527C27.4848 9.39222 28.7873 9.19238 30.4237 9.19238V14.9542Z" fill="white"/>
<path d="M15.1284 15.5207V9.75879H10.2526C4.60865 9.75879 0 14.3217 0 19.9836C0 25.6456 4.57526 30.2417 10.2526 30.2417H15.095V24.4799H10.286C7.81467 24.4799 5.81091 22.4815 5.81091 20.0169C5.81091 17.5523 7.81467 15.554 10.286 15.554H15.1284V15.5207Z" fill="white"/>
<path d="M32.0601 19.051V30.2417H37.7708V19.051C37.7708 17.0527 39.3738 15.454 41.3776 15.454C43.3813 15.454 44.9843 17.0527 44.9843 19.051V30.2417H50.6951V19.051C50.6951 13.922 46.5205 9.75879 41.3776 9.75879C36.2346 9.75879 32.0601 13.922 32.0601 19.051Z" fill="white"/>
<path d="M44.9844 19.051V30.2417H50.6951V19.051C50.6951 17.0527 52.2981 15.454 54.3019 15.454C56.3056 15.454 57.9086 17.0527 57.9086 19.051V30.2417H63.6194V19.051C63.6194 13.922 59.4449 9.75879 54.3019 9.75879C49.1589 9.75879 44.9844 13.922 44.9844 19.051Z" fill="white"/>
</svg>
