<svg width="142" height="40" viewBox="0 0 142 40" fill="none" xmlns="http://www.w3.org/2000/svg">
<path d="M142 -1.43051e-06V40H68.6958V-1.43051e-06H142ZM75.6753 6.09473V33.7383H81.3862V21.1826H90.4028V15.5205H81.3862V11.79H96.0806V6.09473H75.6753ZM99.0864 6.09473V33.7383H104.796V6.09473H99.0864ZM107.535 6.09473V33.7383H113.246V14.7871L129.476 33.7383H135.154V6.09473H129.476V25.0127L113.246 6.09473H107.535Z" fill="#417BFF"/>
<path d="M30.4239 14.9542C28.6539 14.9875 27.1845 15.4538 26.049 16.353C24.9136 17.2523 24.3124 18.3847 24.2456 19.7169V30.2082H18.5349V9.75853H24.2456V11.3239C24.78 10.5912 25.5481 10.0916 26.5166 9.72523C27.4851 9.39217 28.7875 9.19234 30.4239 9.19234V14.9542Z" fill="#417BFF"/>
<path d="M15.1284 15.5204V9.75853H10.2526C4.60865 9.75853 0 14.3214 0 19.9833C0 25.6453 4.57526 30.2415 10.2526 30.2415H15.095V24.4796H10.286C7.81467 24.4796 5.81091 22.4813 5.81091 20.0167C5.81091 17.552 7.81467 15.5537 10.286 15.5537H15.1284V15.5204Z" fill="#417BFF"/>
<path d="M32.0603 19.0508V30.2415H37.771V19.0508C37.771 17.0525 39.374 15.4538 41.3778 15.4538C43.3816 15.4538 44.9846 17.0525 44.9846 19.0508V30.2415H50.6953V19.0508C50.6953 13.9217 46.5208 9.75853 41.3778 9.75853C36.2348 9.75853 32.0603 13.9217 32.0603 19.0508Z" fill="#417BFF"/>
<path d="M44.9844 19.0508V30.2415H50.6951V19.0508C50.6951 17.0525 52.2981 15.4538 54.3019 15.4538C56.3056 15.4538 57.9086 17.0525 57.9086 19.0508V30.2415H63.6194V19.0508C63.6194 13.9217 59.4449 9.75853 54.3019 9.75853C49.1589 9.75853 44.9844 13.9217 44.9844 19.0508Z" fill="#417BFF"/>
</svg>
