<svg width="16" height="16" viewBox="0 0 16 16" fill="none" xmlns="http://www.w3.org/2000/svg">
<path d="M11.9018 8.97767C11.8719 8.9621 10.7523 8.36419 10.5533 8.28654C10.4721 8.2549 10.3851 8.22403 10.2925 8.22403C10.1413 8.22403 10.0143 8.30573 9.91542 8.46623C9.80357 8.64652 9.46501 9.07571 9.36039 9.20393C9.34673 9.22085 9.32808 9.24108 9.31691 9.24108C9.30689 9.24108 9.13362 9.16369 9.08116 9.13898C7.88012 8.57319 6.96848 7.2126 6.84348 6.98316C6.82563 6.95017 6.82488 6.93519 6.82473 6.93519C6.82912 6.91773 6.86951 6.87382 6.89035 6.85116C6.95133 6.78573 7.0174 6.69948 7.08132 6.61604C7.11159 6.57651 7.14191 6.53693 7.17167 6.49962C7.26442 6.3826 7.30571 6.29175 7.35357 6.18652L7.37865 6.13185C7.49553 5.88002 7.39571 5.6675 7.36345 5.59888C7.33697 5.54145 6.86422 4.3041 6.81396 4.1741C6.69309 3.86041 6.53338 3.71436 6.31144 3.71436C6.29085 3.71436 6.31144 3.71436 6.22508 3.7183C6.11992 3.72312 5.54725 3.80488 5.29405 3.97797C5.02554 4.16156 4.57129 4.74676 4.57129 5.77593C4.57129 6.70218 5.1133 7.57674 5.346 7.90936C5.35179 7.91774 5.36241 7.93478 5.37782 7.95922C6.26901 9.3707 7.38 10.4167 8.50625 10.9047C9.59051 11.3743 10.1039 11.4286 10.3958 11.4286H10.3959C10.5186 11.4286 10.6167 11.4182 10.7033 11.409L10.7583 11.4033C11.1329 11.3673 11.956 10.9047 12.1432 10.3404C12.2907 9.89598 12.3296 9.41039 12.2315 9.23415C12.1643 9.11432 12.0484 9.05403 11.9018 8.97767Z" fill="white"/>
<path d="M8.13688 0.285645C3.95834 0.285645 0.558839 3.65959 0.558839 7.80672C0.558839 9.14806 0.917804 10.461 1.59781 11.6102L0.296253 15.4495C0.272008 15.5211 0.290041 15.6003 0.342989 15.6542C0.38121 15.6932 0.433056 15.7142 0.486004 15.7142C0.506292 15.7142 0.52673 15.7112 0.546667 15.7048L4.55008 14.4326C5.64561 15.018 6.88381 15.3269 8.13693 15.3269C12.3151 15.327 15.7142 11.9534 15.7142 7.80672C15.7142 3.65959 12.3151 0.285645 8.13688 0.285645ZM8.13688 13.7603C6.95774 13.7603 5.81568 13.4198 4.83396 12.7756C4.80095 12.7539 4.76263 12.7428 4.72406 12.7428C4.70367 12.7428 4.68323 12.7459 4.66334 12.7522L2.65788 13.3897L3.30528 11.4797C3.32622 11.4179 3.31575 11.3497 3.27718 11.297C2.52959 10.2755 2.13441 9.06866 2.13441 7.80672C2.13441 4.52349 4.8271 1.85235 8.13683 1.85235C11.4462 1.85235 14.1385 4.52349 14.1385 7.80672C14.1386 11.0896 11.4463 13.7603 8.13688 13.7603Z" fill="white"/>
</svg>
