<svg width="26" height="26" viewBox="0 0 26 26" fill="none" xmlns="http://www.w3.org/2000/svg">
<g clip-path="url(#clip0_9501_373)">
<path d="M13.1251 18.2843C13.2215 21.0441 15.5368 23.2032 18.2965 23.1068C21.0563 23.0104 23.2154 20.6951 23.119 17.9353C23.0226 15.1756 20.7073 13.0165 17.9475 13.1129C15.1878 13.2092 13.0287 15.5246 13.1251 18.2843ZM13.1251 18.2843C13.0858 17.1592 13.4214 16.1079 14.0198 15.2508L13.7057 6.25673M13.1251 18.2843C13.1539 19.1092 13.3809 19.8804 13.7588 20.5537C12.9417 21.2943 11.0144 21.8602 8.74997 21.9392C5.71425 22.0452 3.22207 21.2363 3.18352 20.1324L2.71238 6.64063M13.7057 6.25673C13.7442 7.36063 11.3145 8.34145 8.27883 8.44746C5.24311 8.55347 2.75093 7.74452 2.71238 6.64063M13.7057 6.25673C13.6671 5.15284 11.1749 4.34389 8.13923 4.4499C5.10351 4.55591 2.67383 5.53673 2.71238 6.64063M3.02647 15.6351C3.06502 16.739 5.55721 17.548 8.59292 17.442C10.7806 17.3656 12.6535 16.8349 13.5148 16.1312M13.8627 10.754C13.9013 11.8579 11.4716 12.8387 8.43587 12.9447C5.40016 13.0507 2.90797 12.2418 2.86942 11.1379" stroke="white" stroke-width="2" stroke-linecap="round" stroke-linejoin="round"/>
</g>
<defs>
<clipPath id="clip0_9501_373">
<rect width="24" height="24" fill="white" transform="translate(0.539062 1.71338) rotate(-2)"/>
</clipPath>
</defs>
</svg>
