<svg width="23" height="16" viewBox="0 0 23 16" fill="none" xmlns="http://www.w3.org/2000/svg">
<path d="M10.2873 10.7624C10.3646 13.6568 8.00655 16.0252 5.09717 15.9999C2.24579 15.9745 -0.0330651 13.5721 -0.000634679 10.7463C0.0848069 3.39371 6.26342 0.728588 8.35705 0.0357301C8.72875 -0.087266 9.12976 0.115461 9.24639 0.486304L9.24951 0.495575C9.35366 0.825625 9.19525 1.1804 8.8803 1.32873C7.76706 1.85348 5.27679 3.2738 4.15108 5.8969C4.52029 5.82458 4.90508 5.79182 5.29799 5.80357C8.01029 5.88206 10.2156 8.07374 10.2879 10.7617L10.2873 10.7624Z" fill="#407BFF"/>
<path d="M22.9972 10.7625C23.0746 13.6569 20.7165 16.0253 17.8071 16C14.9558 15.9747 12.6769 13.5728 12.7093 10.747C12.7948 3.39383 18.9734 0.72871 21.0664 0.0358521C21.4381 -0.087144 21.8391 0.115583 21.9557 0.486426L21.9588 0.495697C22.063 0.825747 21.9046 1.18052 21.5896 1.32886C20.4764 1.8536 17.9861 3.27393 16.8604 5.89702C17.2296 5.8247 17.6144 5.79195 18.0073 5.80369C20.7196 5.88218 22.9249 8.07386 22.9972 10.7619V10.7625Z" fill="#407BFF"/>
</svg>
