<svg width="23" height="21" viewBox="0 0 23 21" fill="none" xmlns="http://www.w3.org/2000/svg">
<path d="M1.33591 15.1522L1.34639 15.0023C1.36846 14.6866 1.3795 14.5288 1.4144 14.3767C1.44539 14.2416 1.49034 14.1101 1.5485 13.9844C1.61402 13.8427 1.70192 13.7111 1.87773 13.448L5.88422 7.45069M1.33591 15.1522C1.18181 17.3559 2.84338 19.2674 5.04714 19.4215C7.2509 19.5756 9.16232 17.914 9.31642 15.7102M1.33591 15.1522L1.34986 14.9527C1.36939 14.6733 1.37916 14.5336 1.44099 14.4308C1.49537 14.3402 1.57701 14.2693 1.6742 14.228C1.7847 14.1811 1.92437 14.1909 2.20372 14.2104L8.58813 14.6569C8.86747 14.6764 9.00714 14.6862 9.11004 14.748C9.20055 14.8024 9.27151 14.884 9.31277 14.9812C9.35967 15.0917 9.34991 15.2314 9.33037 15.5107L9.31642 15.7102M5.88422 7.45069L9.01705 13.9472C9.15452 14.2323 9.22326 14.3748 9.26842 14.5242C9.30852 14.6568 9.33473 14.7933 9.34662 14.9313C9.36001 15.0868 9.34898 15.2447 9.3269 15.5604L9.31642 15.7102M5.88422 7.45069L17.9945 6.29264M13.4462 13.9941L13.4567 13.8443C13.4787 13.5286 13.4898 13.3707 13.5247 13.2186C13.5557 13.0836 13.6006 12.9521 13.6588 12.8263C13.7243 12.6847 13.8122 12.5531 13.988 12.2899L17.9945 6.29264M13.4462 13.9941C13.2921 16.1979 14.9537 18.1093 17.1574 18.2634C19.3612 18.4175 21.2726 16.7559 21.4267 14.5522M13.4462 13.9941L13.4601 13.7946C13.4797 13.5153 13.4894 13.3756 13.5513 13.2727C13.6057 13.1822 13.6873 13.1112 13.7845 13.07C13.895 13.0231 14.0347 13.0328 14.314 13.0524L20.6984 13.4988C20.9778 13.5183 21.1174 13.5281 21.2203 13.5899C21.3108 13.6443 21.3818 13.726 21.4231 13.8232C21.47 13.9336 21.4602 14.0733 21.4407 14.3527L21.4267 14.5522M17.9945 6.29264L21.1273 12.7892C21.2648 13.0742 21.3335 13.2168 21.3787 13.3662C21.4188 13.4988 21.445 13.6352 21.4569 13.7733C21.4703 13.9288 21.4593 14.0866 21.4372 14.4023L21.4267 14.5522M12.2881 1.88384L11.9394 6.87166" stroke="white" stroke-width="2" stroke-linecap="round" stroke-linejoin="round"/>
</svg>
