<svg width="17" height="14" viewBox="0 0 17 14" fill="none" xmlns="http://www.w3.org/2000/svg">
<path d="M2.09978 6.1C6.39978 4.26 9.25978 3.05 10.6998 2.47C14.7698 0.8 15.6198 0.5 16.1798 0.5C16.2998 0.5 16.5798 0.53 16.7498 0.67C16.8632 0.770128 16.9347 0.909431 16.9498 1.06C16.9798 1.17 16.9998 1.43 16.9798 1.63C16.7598 3.91 15.7998 9.45 15.3098 12.01C15.1098 13.1 14.6998 13.46 14.3098 13.49C13.4498 13.57 12.8098 12.94 11.9698 12.41C10.6698 11.57 9.93978 11.05 8.67978 10.24C7.22978 9.3 8.17978 8.79 8.99978 7.94C9.21978 7.72 12.9898 4.36 13.0598 4.05C13.0698 4.02 13.0798 3.87 12.9898 3.8C12.9098 3.72 12.7798 3.75 12.6898 3.77C12.5598 3.8 10.4898 5.14 6.46978 7.8C5.88978 8.2 5.34978 8.38 4.86978 8.37C4.34978 8.37 3.33978 8.08 2.58978 7.84C1.65978 7.54 0.929779 7.39 0.989779 6.89C1.02978 6.63 1.38978 6.37 2.08978 6.09L2.09978 6.1Z" fill="white"/>
</svg>
