<svg width="16" height="16" viewBox="0 0 16 16" fill="none" xmlns="http://www.w3.org/2000/svg">
<path d="M11.9018 8.97743C11.8719 8.96186 10.7523 8.36395 10.5533 8.28629C10.4721 8.25466 10.3851 8.22378 10.2925 8.22378C10.1413 8.22378 10.0143 8.30549 9.91542 8.46599C9.80357 8.64627 9.46501 9.07547 9.36039 9.20368C9.34673 9.22061 9.32808 9.24083 9.31691 9.24083C9.30689 9.24083 9.13362 9.16345 9.08116 9.13874C7.88012 8.57295 6.96848 7.21236 6.84348 6.98291C6.82563 6.94993 6.82488 6.93495 6.82473 6.93495C6.82912 6.91748 6.86951 6.87357 6.89035 6.85092C6.95133 6.78549 7.0174 6.69923 7.08132 6.6158C7.11159 6.57627 7.14191 6.53668 7.17167 6.49937C7.26442 6.38235 7.30571 6.29151 7.35357 6.18628L7.37865 6.13161C7.49553 5.87978 7.39571 5.66726 7.36345 5.59864C7.33697 5.54121 6.86422 4.30386 6.81396 4.17386C6.69309 3.86017 6.53338 3.71411 6.31144 3.71411C6.29085 3.71411 6.31144 3.71411 6.22508 3.71806C6.11992 3.72287 5.54725 3.80463 5.29405 3.97773C5.02554 4.16131 4.57129 4.74652 4.57129 5.77568C4.57129 6.70194 5.1133 7.5765 5.346 7.90912C5.35179 7.9175 5.36241 7.93453 5.37782 7.95898C6.26901 9.37045 7.38 10.4165 8.50625 10.9044C9.59051 11.3741 10.1039 11.4284 10.3958 11.4284H10.3959C10.5186 11.4284 10.6167 11.418 10.7033 11.4087L10.7583 11.403C11.1329 11.367 11.956 10.9045 12.1432 10.3402C12.2907 9.89574 12.3296 9.41014 12.2315 9.23391C12.1643 9.11408 12.0484 9.05379 11.9018 8.97743Z" fill="white"/>
<path d="M8.13688 0.285645C3.95834 0.285645 0.558839 3.65959 0.558839 7.80672C0.558839 9.14806 0.917804 10.461 1.59781 11.6102L0.296253 15.4495C0.272008 15.5211 0.290041 15.6003 0.342989 15.6542C0.38121 15.6932 0.433056 15.7142 0.486004 15.7142C0.506292 15.7142 0.52673 15.7112 0.546667 15.7048L4.55008 14.4326C5.64561 15.018 6.88381 15.3269 8.13693 15.3269C12.3151 15.327 15.7142 11.9534 15.7142 7.80672C15.7142 3.65959 12.3151 0.285645 8.13688 0.285645ZM8.13688 13.7603C6.95774 13.7603 5.81568 13.4198 4.83396 12.7756C4.80095 12.7539 4.76263 12.7428 4.72406 12.7428C4.70367 12.7428 4.68323 12.7459 4.66334 12.7522L2.65788 13.3897L3.30528 11.4797C3.32622 11.4179 3.31575 11.3497 3.27718 11.297C2.52959 10.2755 2.13441 9.06866 2.13441 7.80672C2.13441 4.52349 4.8271 1.85235 8.13683 1.85235C11.4462 1.85235 14.1385 4.52349 14.1385 7.80672C14.1386 11.0896 11.4463 13.7603 8.13688 13.7603Z" fill="white"/>
</svg>
