<svg width="16" height="16" viewBox="0 0 16 16" fill="none" xmlns="http://www.w3.org/2000/svg">
<path d="M11.9028 8.97767C11.8729 8.9621 10.7532 8.36419 10.5543 8.28654C10.4731 8.2549 10.386 8.22403 10.2935 8.22403C10.1423 8.22403 10.0153 8.30573 9.91639 8.46623C9.80455 8.64652 9.46598 9.07571 9.36137 9.20393C9.34771 9.22085 9.32906 9.24108 9.31789 9.24108C9.30787 9.24108 9.1346 9.16369 9.08214 9.13898C7.8811 8.57319 6.96946 7.2126 6.84446 6.98316C6.8266 6.95017 6.82586 6.93519 6.82571 6.93519C6.8301 6.91773 6.87048 6.87382 6.89133 6.85116C6.95231 6.78573 7.01838 6.69948 7.0823 6.61604C7.11257 6.57651 7.14288 6.53693 7.17265 6.49962C7.2654 6.3826 7.30668 6.29175 7.35455 6.18652L7.37963 6.13185C7.49651 5.88002 7.39668 5.6675 7.36442 5.59888C7.33795 5.54145 6.8652 4.3041 6.81494 4.1741C6.69407 3.86041 6.53436 3.71436 6.31242 3.71436C6.29183 3.71436 6.31242 3.71436 6.22606 3.7183C6.1209 3.72312 5.54823 3.80488 5.29502 3.97797C5.02651 4.16156 4.57227 4.74676 4.57227 5.77593C4.57227 6.70218 5.11427 7.57674 5.34698 7.90936C5.35277 7.91774 5.36339 7.93478 5.37879 7.95922C6.26999 9.3707 7.38098 10.4167 8.50722 10.9047C9.59149 11.3743 10.1049 11.4286 10.3968 11.4286H10.3969C10.5195 11.4286 10.6177 11.4182 10.7043 11.409L10.7593 11.4033C11.1338 11.3673 11.957 10.9047 12.1442 10.3404C12.2917 9.89598 12.3306 9.41039 12.2325 9.23415C12.1652 9.11432 12.0494 9.05403 11.9028 8.97767Z" fill="#141414"/>
<path d="M8.13737 0.285645C3.95883 0.285645 0.559327 3.65959 0.559327 7.80672C0.559327 9.14806 0.918292 10.461 1.5983 11.6102L0.296741 15.4495C0.272496 15.5211 0.290529 15.6003 0.343477 15.6542C0.381698 15.6932 0.433544 15.7142 0.486492 15.7142C0.50678 15.7142 0.527218 15.7112 0.547155 15.7048L4.55057 14.4326C5.6461 15.018 6.8843 15.3269 8.13742 15.3269C12.3156 15.327 15.7147 11.9534 15.7147 7.80672C15.7147 3.65959 12.3156 0.285645 8.13737 0.285645ZM8.13737 13.7603C6.95823 13.7603 5.81617 13.4198 4.83445 12.7756C4.80144 12.7539 4.76312 12.7428 4.72454 12.7428C4.70416 12.7428 4.68372 12.7459 4.66383 12.7522L2.65837 13.3897L3.30577 11.4797C3.3267 11.4179 3.31624 11.3497 3.27766 11.297C2.53008 10.2755 2.1349 9.06866 2.1349 7.80672C2.1349 4.52349 4.82759 1.85235 8.13732 1.85235C11.4466 1.85235 14.139 4.52349 14.139 7.80672C14.1391 11.0896 11.4467 13.7603 8.13737 13.7603Z" fill="#141414"/>
</svg>
